<?xml version="1.0" standalone="no"?>
<!DOCTYPE svg PUBLIC "-//W3C//DTD SVG 20010904//EN"
 "http://www.w3.org/TR/2001/REC-SVG-20010904/DTD/svg10.dtd">
<svg version="1.0" xmlns="http://www.w3.org/2000/svg" x="0px" y="0px" viewBox="0 0 534.8 276.4"
 preserveAspectRatio="xMidYMid meet">
<metadata>
Created by potrace 1.16, written by Peter Selinger 2001-2019
</metadata>
<g transform="translate(0.000000,1600.000000) scale(0.100000,-0.100000)"
fill="#000000" stroke="none">
<path d="M4872 11123 c-1711 -1714 -3112 -3119 -3112 -3123 0 -4 142 -150 316
-323 228 -228 320 -314 332 -310 13 4 14 2 4 -4 -10 -8 7 -30 70 -93 46 -45
84 -86 84 -91 1 -5 2 -14 3 -21 0 -6 14 1 31 17 53 51 181 45 165 -8 -27 -89
-45 -187 -33 -187 18 0 93 185 81 203 -3 6 -1 7 5 3 7 -4 12 -1 12 8 0 13 12
16 63 16 49 0 73 -6 112 -28 l51 -28 38 28 c47 34 80 35 186 8 77 -20 78 -20
135 0 70 24 89 25 106 4 25 -31 6 -155 -26 -168 -7 -2 -31 0 -54 6 -23 6 -43
9 -46 7 -13 -14 -33 -329 -20 -329 2 0 19 9 37 20 44 27 55 25 72 -8 13 -26
13 -32 -3 -58 -10 -16 -33 -42 -50 -59 -36 -34 -86 -38 -136 -13 -26 14 -30
13 -48 -5 -10 -10 -15 -22 -10 -26 5 -3 19 -23 32 -43 25 -42 35 -46 50 -21 6
11 11 13 11 5 0 -8 5 -10 13 -6 8 6 8 3 -1 -9 -8 -9 -11 -21 -7 -27 3 -5 1
-10 -5 -10 -7 0 -8 -6 -1 -18 12 -23 4661 -4672 4671 -4672 4 0 1063 1055
2352 2345 1290 1290 2351 2345 2358 2345 8 0 10 8 7 21 -5 17 -2 20 16 15 12
-3 29 -1 37 4 8 5 22 4 33 -2 15 -7 18 -7 12 2 -5 9 -2 10 12 6 39 -13 57 16
58 93 1 40 -2 74 -7 77 -4 3 -4 13 2 23 6 12 5 22 -3 31 -9 11 -8 11 6 0 17
-12 20 -12 29 3 5 10 14 15 20 11 6 -4 5 -10 -3 -15 -10 -6 -6 -8 11 -7 20 2
26 10 32 38 3 19 14 68 23 109 9 40 14 80 11 88 -3 8 -2 12 2 9 8 -5 36 93 29
100 -2 2 -22 5 -45 7 -23 2 -44 6 -48 10 -11 10 17 100 38 123 21 23 33 22
178 -13 36 -9 72 -17 80 -17 9 -1 20 -5 25 -8 6 -3 18 -4 27 -3 10 2 20 -5 23
-15 3 -10 12 -21 20 -24 8 -3 15 -11 15 -18 0 -9 -3 -8 -10 2 -16 25 -5 -83
24 -235 15 -77 30 -170 33 -207 l6 -66 -42 -12 c-24 -6 -55 -8 -71 -5 -23 5
-31 2 -40 -14 -9 -18 -6 -24 22 -41 37 -22 89 -26 137 -9 41 14 40 34 -5 274
-9 50 -18 109 -19 132 -2 23 -8 51 -15 62 -6 12 -12 49 -13 83 -2 51 -6 66
-22 76 -20 13 -19 13 2 7 12 -3 25 -1 29 6 5 8 3 9 -6 4 -8 -5 -11 -4 -6 3 3
6 1 14 -5 18 -6 3 -15 1 -19 -6 -5 -8 -10 -9 -14 -2 -3 6 12 19 34 29 23 10
38 23 35 31 -3 7 4 12 18 11 12 0 16 -3 10 -6 -7 -2 -13 -16 -13 -29 0 -17 6
-24 20 -24 11 0 20 5 20 10 0 6 -7 10 -15 10 -8 0 -15 4 -15 10 0 5 7 6 17 3
11 -4 14 -3 9 5 -9 14 39 46 55 36 8 -5 9 -3 3 7 -12 20 -14 40 -3 33 5 -3 9
-1 9 4 0 5 10 7 23 5 19 -4 81 54 370 342 191 191 347 351 347 355 0 13 -6232
6240 -6244 6239 -6 -1 -1412 -1403 -3124 -3116z m5006 -867 c12 -4 22 -14 22
-22 0 -8 6 -14 14 -14 7 0 19 -7 26 -15 10 -12 8 -13 -10 -10 -12 2 -28 9 -35
15 -18 15 -53 -26 -37 -42 9 -9 12 -7 12 11 0 18 4 22 18 16 9 -4 28 -10 40
-13 16 -3 20 -7 12 -12 -7 -4 -1 -7 15 -7 15 0 23 2 19 6 -5 3 -10 13 -12 21
-1 8 9 0 23 -18 15 -18 31 -29 37 -26 7 4 8 2 4 -5 -5 -7 4 -15 23 -22 29 -10
30 -12 16 -32 -17 -25 -19 -37 -5 -37 6 0 10 9 10 20 0 11 7 20 15 20 16 0 38
-34 28 -44 -3 -3 1 -6 11 -6 11 0 15 4 10 13 -5 8 -2 8 9 -2 20 -16 22 -22 5
-18 -7 1 -12 -5 -13 -13 0 -8 -6 -14 -13 -12 -13 2 -16 -10 -5 -21 3 -4 12 2
20 13 15 21 43 27 43 9 0 -5 4 -8 9 -5 10 7 44 -29 47 -50 1 -9 -3 -13 -10
-11 -7 3 -13 -1 -13 -8 0 -9 6 -11 16 -6 9 5 22 7 29 5 7 -1 8 0 2 3 -5 2 -10
9 -10 15 0 6 6 6 15 -2 8 -7 15 -23 15 -36 0 -13 2 -24 4 -24 2 0 13 -3 23 -6
17 -5 17 -5 1 6 -10 6 -18 16 -18 22 0 6 8 4 18 -5 10 -10 24 -17 31 -17 7 0
9 -5 6 -10 -4 -6 -11 -8 -16 -5 -5 4 -9 2 -9 -4 0 -5 5 -13 10 -16 6 -4 7 -12
3 -18 -4 -7 0 -6 10 2 13 10 20 11 30 2 8 -6 17 -8 21 -4 10 11 43 -31 41 -53
-1 -17 3 -20 27 -18 26 3 29 1 23 -19 -4 -15 -4 -18 3 -8 8 10 14 11 28 1 15
-9 15 -10 2 -6 -9 2 -19 -2 -22 -10 -4 -9 -2 -12 5 -8 7 4 10 1 7 -7 -3 -8
-11 -13 -17 -11 -7 1 -10 -2 -7 -7 7 -11 -22 -23 -36 -14 -6 3 -8 1 -4 -5 9
-15 44 -11 51 6 3 7 10 10 16 6 8 -4 9 -3 5 4 -4 7 -3 12 3 12 5 0 13 -5 17
-11 4 -8 9 -8 17 0 6 6 14 11 19 11 9 0 114 -92 111 -97 -2 -2 0 -4 5 -4 10
-2 57 -42 60 -52 5 -19 55 -55 70 -50 13 4 12 2 -3 -10 -19 -16 -19 -16 8 -11
15 2 27 0 27 -6 0 -5 6 -9 13 -7 6 1 11 -4 10 -10 -2 -7 1 -13 5 -13 5 0 20
-9 33 -21 22 -19 22 -21 4 -17 -15 2 -19 -2 -17 -16 2 -12 -1 -16 -9 -10 -8 4
-10 3 -5 -4 6 -11 -13 -17 -37 -13 -5 1 -6 -2 -3 -7 6 -10 66 -3 64 7 -2 18 3
34 9 28 3 -4 13 -2 20 5 9 7 17 8 21 2 4 -5 28 -26 54 -47 42 -34 47 -41 37
-59 -8 -15 -8 -19 0 -14 6 4 11 1 11 -8 0 -8 4 -18 10 -21 7 -4 7 2 1 18 -14
36 0 43 15 7 7 -16 18 -30 24 -30 7 0 5 7 -4 16 -24 23 -19 30 5 8 19 -18 20
-19 2 -32 -17 -13 -16 -14 4 -7 13 3 31 2 40 -4 10 -6 14 -11 9 -11 -4 0 2 -9
15 -20 16 -13 19 -19 10 -20 -11 0 -10 -4 4 -14 18 -13 18 -14 -3 -25 -19 -10
-22 -9 -22 8 0 11 -4 22 -9 25 -4 3 -7 -6 -5 -19 2 -25 -6 -32 -20 -17 -4 4
-11 7 -14 7 -15 1 -59 30 -90 59 -18 17 -37 30 -42 29 -4 -1 -16 7 -26 19 -21
23 -21 23 34 1 13 -5 12 30 -1 43 -12 12 13 33 31 27 14 -6 15 -5 2 9 -11 11
-17 12 -22 4 -7 -10 -12 -1 -9 17 2 16 -18 6 -24 -13 -3 -11 -13 -27 -21 -35
-12 -12 -12 -15 -2 -15 10 0 9 -3 -2 -10 -8 -5 -17 -6 -20 -2 -9 13 -85 67
-113 82 -17 8 -26 19 -22 28 3 9 0 12 -7 10 -17 -7 -53 28 -39 37 6 3 11 1 11
-6 0 -9 4 -9 15 1 8 6 20 8 27 4 8 -4 10 -3 5 2 -5 5 -26 9 -47 9 -29 1 -37
-3 -33 -15 4 -13 4 -13 -6 0 -15 21 -14 43 2 34 9 -5 9 -4 0 6 -6 7 -9 18 -7
25 3 7 -2 15 -12 19 -14 5 -15 4 -4 -9 8 -10 9 -15 1 -15 -6 0 -11 4 -11 9 0
10 -19 9 -37 -2 -6 -4 -15 -2 -19 4 -4 7 -3 9 4 5 6 -3 13 3 17 14 3 11 10 20
15 20 5 0 6 -7 3 -17 -4 -11 -3 -14 5 -9 7 4 12 11 12 16 0 13 -40 52 -73 73
-23 15 -26 21 -16 33 10 12 9 13 -5 8 -20 -8 -21 -44 -1 -44 8 0 15 -4 15 -10
0 -5 -5 -10 -11 -10 -5 0 -7 -5 -3 -11 4 -8 9 -7 15 2 4 7 11 10 14 7 10 -10
-4 -28 -23 -29 -14 0 -13 -2 3 -8 23 -9 44 7 38 29 -3 10 -1 9 7 -2 27 -42
-36 -60 -77 -22 -28 26 -29 34 -5 35 14 0 14 2 -3 8 -12 5 -26 4 -34 -3 -12
-8 -13 -8 -7 2 5 9 3 13 -5 11 -25 -4 -48 12 -42 29 5 11 2 14 -10 9 -11 -4
-14 -2 -11 8 4 10 0 12 -15 8 -15 -4 -21 -1 -21 11 0 10 -3 15 -8 12 -9 -5
-44 19 -42 31 1 4 -7 10 -17 12 -24 4 -54 31 -47 42 3 5 10 7 15 3 5 -3 7 -10
4 -15 -10 -15 1 -10 15 7 11 12 11 15 0 12 -14 -3 -33 49 -23 65 3 6 1 7 -5 3
-6 -4 -9 -21 -7 -39 l5 -32 -11 28 c-6 15 -15 27 -19 27 -5 0 -3 -12 5 -27 21
-40 7 -48 -29 -16 -17 15 -32 32 -34 36 -2 5 -15 13 -29 18 -16 6 -23 14 -19
24 5 15 -5 19 -33 15 -12 -1 -13 1 -2 13 6 9 14 28 17 44 4 22 3 26 -7 16 -16
-16 -29 -17 -29 -2 0 5 5 7 10 4 6 -3 10 -1 10 5 0 15 -22 8 -28 -8 -2 -7 6
-16 18 -20 21 -8 21 -9 5 -25 -14 -15 -20 -15 -34 -5 -41 31 -50 41 -44 51 4
6 9 3 14 -9 5 -13 7 -7 6 18 -1 21 -6 38 -12 38 -5 0 -3 5 5 10 12 7 10 9 -6
8 -15 -2 -21 -8 -20 -24 1 -15 6 -20 16 -16 13 5 13 3 1 -11 -21 -26 -34 -21
-27 11 6 25 5 26 -9 8 -12 -17 -17 -17 -32 -5 -26 20 -81 75 -61 60 9 -7 21
-10 27 -7 5 3 12 0 14 -6 4 -9 6 -8 6 3 1 8 -4 20 -10 26 -8 8 -6 19 7 39 l18
29 -20 -18 c-12 -9 -27 -16 -35 -14 -8 2 -10 2 -5 -1 4 -2 2 -9 -5 -14 -11 -8
-10 -9 4 -4 9 3 17 4 17 2 0 -3 3 -13 7 -23 6 -16 5 -16 -10 -4 -9 7 -23 11
-32 7 -9 -3 -19 3 -26 16 -7 13 -7 18 -1 14 6 -3 13 -3 16 2 2 4 -6 8 -19 8
-13 0 -21 -5 -19 -10 3 -6 -4 0 -15 13 -14 15 -21 18 -22 10 -1 -8 -5 2 -9 21
-7 31 -7 32 -9 8 0 -16 -6 -28 -12 -28 -5 0 -7 -6 -3 -12 5 -9 2 -9 -9 1 -9 7
-17 19 -17 25 0 6 4 6 9 -2 6 -10 10 -7 15 11 3 14 8 33 11 44 3 10 -1 5 -9
-12 -15 -31 -21 -18 -10 23 5 17 12 21 28 17 21 -5 21 -5 -1 6 -15 8 -21 19
-19 36 4 38 29 47 84 29z m-1621 -567 c136 -136 267 -267 290 -290 23 -24 94
-96 158 -159 100 -100 139 -146 105 -125 -16 10 -12 -1 6 -15 12 -11 15 -11
12 0 -2 7 3 15 10 17 7 3 11 -1 10 -9 -2 -7 3 -12 10 -10 8 1 11 -2 8 -7 -4
-5 -2 -12 4 -16 5 -3 10 -11 10 -17 0 -7 -4 -7 -13 0 -8 7 -118 11 -318 12
-320 1 -367 -5 -383 -45 -9 -23 -7 -658 2 -670 21 -30 67 -35 346 -35 277 0
284 0 316 23 19 12 37 34 40 48 4 14 8 160 9 324 1 168 6 304 11 311 6 6 6 15
2 20 -4 4 1 2 12 -6 10 -8 22 -25 27 -37 5 -13 13 -22 19 -21 17 5 811 -795
805 -811 -4 -11 -3 -12 10 -1 8 7 15 10 15 8 0 -8 -49 -59 -55 -58 -3 0 -40
-35 -81 -80 -42 -44 -79 -78 -83 -75 -5 2 -51 -39 -104 -93 -53 -53 -122 -119
-154 -145 -98 -82 -243 -229 -243 -247 0 -48 57 -70 163 -65 84 5 117 -3 117
-26 0 -11 -7 -19 -15 -19 -9 0 -24 -13 -33 -30 -9 -16 -21 -30 -27 -30 -5 -1
-23 -19 -40 -40 -16 -21 -36 -39 -42 -40 -7 0 -13 -4 -13 -9 0 -16 -67 -76
-86 -78 -18 -1 -18 -1 0 13 11 8 23 14 26 14 4 0 7 7 7 15 0 9 -11 4 -31 -15
-30 -30 -30 -31 -42 -202 -7 -95 -13 -192 -13 -215 -1 -41 0 -43 28 -43 25 0
30 -5 36 -31 6 -27 2 -36 -28 -67 -43 -43 -99 -49 -144 -16 -23 18 -28 30 -31
74 -2 29 1 73 7 99 5 25 9 46 8 47 -1 1 -34 4 -72 7 l-70 5 14 -118 c8 -66 11
-123 7 -127 -10 -10 -141 -7 -158 3 -7 5 -19 9 -26 10 -8 2 -17 6 -20 10 -4 4
1 4 12 0 13 -4 17 -2 13 8 -3 7 -1 18 5 24 6 6 3 14 -9 23 -29 21 -31 25 -69
221 -20 100 -40 187 -45 192 -14 15 -11 -21 10 -130 33 -165 51 -277 51 -316
0 -35 -2 -38 -41 -48 -22 -6 -53 -8 -69 -5 -33 7 -44 -6 -36 -41 4 -16 14 -24
29 -25 20 -1 20 -2 2 -6 -11 -3 -24 -9 -29 -13 -5 -5 2 -6 15 -3 l23 6 -22
-23 c-12 -13 -22 -27 -22 -32 0 -4 -7 -8 -15 -8 -8 0 -15 -4 -15 -9 0 -11 -58
-71 -68 -71 -4 -1 -20 -19 -37 -40 -16 -21 -36 -39 -42 -40 -7 0 -13 -6 -14
-12 0 -7 -14 -24 -32 -38 -17 -14 -27 -19 -23 -12 7 12 4 12 -14 2 -13 -7 -19
-17 -16 -26 3 -8 2 -12 -3 -9 -6 3 -14 -3 -20 -12 -6 -11 -11 -13 -11 -5 0 7
-5 10 -11 6 -8 -4 -7 -9 2 -16 10 -7 11 -11 2 -14 -9 -4 -7 -14 5 -39 19 -37
28 -40 177 -50 44 -4 99 -12 123 -18 66 -18 58 -38 -68 -167 -60 -62 -110
-120 -110 -129 1 -31 28 -186 39 -221 6 -19 11 -54 11 -77 0 -56 -14 -56 -117
-2 -146 77 -173 89 -198 89 -28 0 -129 -45 -146 -66 -6 -8 -16 -14 -21 -14 -6
0 -30 -14 -55 -31 -25 -16 -55 -29 -67 -27 -20 3 -21 8 -18 88 2 47 7 101 12
120 4 19 12 59 15 89 l7 55 -111 107 c-86 83 -111 113 -111 133 0 31 29 46 90
46 21 0 41 4 44 9 3 5 44 12 91 16 81 6 87 8 96 33 6 15 21 48 35 75 13 27 24
55 24 63 0 8 6 14 13 14 6 1 0 6 -15 13 -29 12 -318 294 -318 310 0 4 -6 5
-12 1 -10 -6 -10 -5 -1 7 6 8 12 17 12 22 0 4 7 20 15 35 20 40 28 104 17 135
-13 33 -31 35 -31 4 0 -46 -51 -128 -99 -159 -45 -29 -48 -30 -141 -23 -109 7
-210 28 -221 46 -4 7 -1 33 7 58 10 34 12 59 4 96 -23 121 -30 171 -30 206 0
21 -4 41 -10 44 -5 3 -10 1 -10 -5 0 -6 -5 -8 -11 -5 -7 5 -5 11 4 18 10 8 12
20 7 37 -8 24 -8 24 -9 3 -1 -13 -5 -23 -10 -23 -5 0 -7 10 -3 22 4 17 2 20
-13 15 -13 -6 -16 -3 -11 10 4 10 4 14 0 10 -11 -10 -75 54 -67 67 3 6 3 8 -1
5 -9 -9 -76 51 -76 68 0 7 -7 13 -16 13 -8 0 -13 4 -10 9 3 4 -15 21 -39 37
-25 15 -45 33 -45 40 0 7 -5 14 -11 16 -5 2 -153 146 -327 321 l-317 317 969
970 c534 534 974 969 978 968 4 -2 119 -114 255 -249z m-4150 -2489 l30 -11
-19 -91 c-10 -50 -17 -98 -15 -107 3 -14 107 189 107 210 0 20 106 9 159 -17
l52 -26 -6 -67 c-14 -137 -35 -214 -67 -247 -34 -36 -32 -57 6 -93 l23 -21 25
19 25 20 22 -23 c26 -28 26 -45 -1 -102 -29 -63 -72 -84 -131 -64 -34 12 -46
24 -64 60 -13 24 -23 61 -23 82 0 32 -4 40 -26 48 -14 6 -40 10 -58 10 l-33 0
12 -48 c7 -27 14 -70 16 -97 4 -47 3 -49 -26 -57 -35 -10 -107 -1 -130 16 -15
11 -15 16 0 70 16 54 16 66 1 165 -8 58 -20 153 -26 210 -12 115 -7 129 55
157 37 16 54 17 92 4z m539 -31 l49 -32 -3 -213 -4 -214 36 -15 c19 -8 45 -15
56 -15 19 0 20 6 20 195 l0 194 -32 9 c-40 10 -46 35 -18 80 37 61 92 65 178
12 l32 -20 0 -142 c-1 -158 -21 -340 -41 -364 -25 -30 -113 -67 -159 -67 -51
-1 -173 37 -190 58 -15 18 -29 132 -38 300 -6 119 -9 130 -27 133 -32 6 -35
15 -24 57 25 92 74 105 165 44z m567 17 c89 -32 114 -49 121 -83 27 -140 60
-292 63 -290 2 2 6 26 9 53 3 27 12 82 19 123 15 77 13 91 -11 91 -33 0 7 96
51 120 23 13 32 12 77 -4 28 -10 72 -31 99 -48 47 -29 49 -31 49 -76 -1 -45
-11 -164 -26 -304 l-7 -67 34 9 c38 11 49 2 49 -46 0 -35 -40 -79 -81 -89 -34
-8 -94 17 -110 47 -8 15 -14 92 -17 231 -3 114 -6 206 -8 204 -2 -2 -21 -79
-42 -171 -38 -166 -38 -168 -23 -227 12 -44 13 -61 4 -70 -16 -16 -112 -16
-151 0 -34 14 -39 31 -22 76 10 27 -20 139 -91 345 -18 54 -19 54 -15 15 2
-22 11 -112 21 -201 18 -157 18 -162 -1 -200 -23 -47 -61 -61 -122 -45 -56 16
-78 48 -62 95 8 26 15 33 30 29 15 -4 20 2 24 29 12 72 28 317 21 327 -3 6
-17 11 -30 11 -13 0 -26 4 -29 8 -8 14 13 77 35 106 26 33 53 33 142 2z m748
9 c39 -8 105 -25 145 -37 l73 -21 6 -41 c3 -22 17 -99 31 -170 41 -214 53
-314 39 -333 -17 -23 -138 -24 -162 -1 -14 15 -14 20 1 64 24 72 22 94 -11 94
-16 0 -45 3 -65 6 l-37 6 -11 -60 c-22 -111 -60 -144 -140 -122 -50 13 -74 47
-65 90 5 25 11 30 36 30 16 0 29 2 29 3 0 2 14 71 31 153 17 82 33 161 36 176
5 25 2 27 -41 33 -43 7 -46 9 -46 37 0 42 36 108 60 108 10 0 51 -7 91 -15z
m541 -3 c6 -6 5 -41 -1 -93 -6 -46 -12 -107 -14 -136 l-4 -52 61 6 c34 3 63 7
65 9 3 2 -6 55 -18 117 l-22 112 21 17 c23 19 82 38 117 38 38 0 76 -19 69
-35 -3 -8 -10 -83 -15 -167 -6 -84 -13 -186 -16 -226 l-6 -74 28 4 c23 3 29
-2 36 -28 12 -40 -10 -75 -59 -99 -43 -20 -83 -13 -115 21 -26 28 -32 90 -16
170 l8 41 -68 6 c-37 3 -69 4 -70 3 -2 -1 3 -55 9 -119 6 -64 8 -120 4 -124
-12 -12 -119 -7 -145 6 -22 12 -22 16 -16 83 4 38 13 95 20 125 11 46 11 64 0
102 -8 25 -21 93 -31 149 -19 118 -17 122 52 148 40 15 109 13 126 -4z m2983
8 c23 -9 26 -15 21 -38 -17 -80 -36 -350 -27 -397 5 -27 12 -78 16 -113 6 -61
5 -62 -22 -73 -24 -9 -78 -6 -125 7 -23 7 -24 83 -2 189 13 63 14 86 4 123 -6
26 -20 94 -30 152 -22 118 -21 121 46 145 47 17 84 18 119 5z m266 -22 c40
-18 58 -33 66 -54 76 -202 138 -361 146 -369 7 -7 8 -6 4 1 -6 11 -49 271 -60
361 -3 24 0 48 7 56 17 23 81 39 120 31 43 -8 42 12 20 -267 l-17 -209 22 -38
c27 -49 27 -61 -5 -91 -21 -19 -36 -24 -82 -23 -31 0 -69 3 -85 7 -26 7 -27
11 -26 60 1 45 -8 71 -70 199 -39 82 -71 152 -71 156 0 5 -6 17 -14 27 -9 12
-1 -34 20 -120 44 -182 53 -266 30 -299 -23 -36 -73 -43 -129 -18 -50 22 -61
42 -49 87 7 23 13 29 31 27 l22 -3 -3 180 -3 181 -32 6 c-18 3 -36 10 -39 15
-8 13 16 92 34 113 23 24 89 18 163 -16z m605 21 c123 -12 183 -37 236 -97
l30 -35 -7 -116 c-9 -151 -30 -288 -46 -307 -15 -19 -93 -58 -132 -68 -25 -6
-35 -1 -72 37 l-44 43 -21 -28 c-11 -15 -32 -36 -46 -45 -26 -17 -27 -17 -65
24 -21 23 -41 53 -45 67 -8 33 28 86 60 86 l23 0 -13 93 c-7 50 -14 112 -14
137 -1 77 -8 90 -47 90 l-36 0 6 40 c3 23 12 52 21 65 19 29 43 31 212 14z
m674 -18 c83 -32 99 -48 105 -106 7 -64 -22 -381 -38 -415 -18 -38 -112 -84
-168 -83 -49 1 -176 37 -196 57 -13 13 -30 146 -39 326 -9 163 -3 176 98 219
86 37 148 38 238 2z m357 -7 l57 -29 74 -198 c41 -108 76 -196 77 -195 1 2 -8
64 -21 138 -13 74 -24 169 -26 210 l-3 75 38 19 c31 15 47 17 80 9 l42 -9 -2
-44 c-1 -25 -9 -130 -18 -233 l-15 -189 26 -43 c24 -42 24 -45 9 -69 -21 -32
-82 -50 -139 -41 -78 12 -77 12 -75 68 2 46 -6 70 -68 202 -39 83 -74 160 -78
173 -4 13 -9 21 -11 19 -3 -3 6 -51 20 -108 56 -237 61 -293 29 -331 -32 -36
-113 -30 -158 12 -31 29 -23 90 11 90 l24 0 0 179 0 178 -32 10 c-31 8 -33 12
-32 51 1 63 35 95 92 89 23 -2 68 -17 99 -33z m747 14 c12 -17 14 -36 10 -73
-8 -64 -27 -95 -59 -95 -21 0 -104 19 -157 35 -15 5 -16 -1 -11 -52 3 -32 9
-62 13 -66 4 -4 46 -2 93 6 59 9 90 10 97 3 13 -13 13 -67 0 -100 -8 -23 -15
-26 -57 -26 -27 1 -66 7 -88 15 -21 8 -40 13 -41 12 -1 -1 -3 -33 -5 -72 l-4
-69 56 -1 c55 -1 56 -1 78 38 21 36 26 39 54 33 44 -9 50 -18 48 -78 -1 -46
-5 -57 -36 -88 -34 -34 -37 -35 -104 -32 -104 4 -213 27 -229 49 -25 35 -24
62 8 147 l33 86 -47 111 c-25 61 -46 124 -46 139 0 35 44 90 73 90 11 0 46 -5
77 -12 46 -9 66 -8 115 4 86 23 111 22 129 -4z m297 2 c32 -17 50 -19 103 -14
l63 6 6 -30 c12 -58 -33 -162 -70 -162 -20 0 -94 39 -120 62 -27 25 -40 18
-45 -28 -4 -34 -2 -37 62 -78 36 -24 91 -68 122 -98 l56 -54 -19 -75 c-14 -56
-25 -80 -46 -97 -57 -47 -70 -50 -183 -38 l-105 11 -13 40 c-8 23 -10 55 -7
77 6 35 10 38 38 38 18 0 61 -14 95 -30 73 -34 87 -36 96 -14 16 41 6 52 -86
98 -139 68 -144 75 -153 190 -6 87 -5 98 14 125 25 35 107 91 133 91 10 0 37
-9 59 -20z m404 10 c20 -8 25 -15 21 -27 -17 -43 -36 -350 -27 -413 20 -136
22 -168 9 -177 -15 -9 -148 -11 -142 -2 2 4 -3 10 -12 13 -13 5 -15 16 -9 69
4 34 13 89 21 122 11 51 11 69 0 120 -34 144 -47 248 -34 257 60 42 125 56
173 38z m-9130 -477 c19 -19 35 -40 35 -46 0 -18 -99 -107 -118 -107 -25 0
-89 46 -97 69 -7 25 6 51 51 101 32 36 37 38 64 28 17 -5 46 -26 65 -45z
m6085 -495 c39 -79 75 -147 80 -152 4 -4 39 -11 77 -13 37 -3 73 -9 78 -13 6
-5 39 -9 75 -11 84 -3 90 -6 90 -39 0 -22 -17 -46 -75 -104 -41 -41 -89 -91
-106 -110 l-30 -35 12 -98 c7 -54 16 -104 22 -110 5 -7 12 -42 15 -78 5 -65 5
-65 -21 -65 -14 0 -47 11 -73 25 -26 14 -52 25 -58 25 -6 0 -22 10 -36 23 -26
23 -77 46 -121 54 -23 4 -107 -32 -154 -67 -34 -25 -127 -70 -146 -70 -21 0
-21 2 -14 88 3 48 10 103 15 122 5 19 11 58 15 87 l7 51 -111 109 c-85 83
-111 115 -111 135 0 33 11 37 135 54 196 28 172 18 200 84 10 25 24 52 31 60
6 8 29 54 50 103 57 127 65 125 154 -55z m-3433 15 c32 -65 60 -120 63 -123 3
-3 11 -17 17 -32 13 -28 25 -32 158 -43 39 -3 94 -11 123 -17 47 -10 52 -14
52 -38 0 -20 -19 -45 -72 -98 -126 -123 -138 -140 -137 -180 1 -44 21 -163 30
-177 4 -5 10 -38 14 -72 6 -54 5 -64 -10 -69 -18 -7 -147 49 -179 78 -10 9
-32 20 -47 23 -16 4 -31 11 -34 16 -17 26 -102 3 -170 -45 -16 -12 -48 -30
-70 -41 -22 -11 -46 -26 -53 -32 -7 -7 -24 -13 -38 -13 -30 0 -42 39 -25 85 6
17 11 47 11 66 0 19 4 50 9 69 5 19 12 56 15 81 5 45 5 46 -62 115 -37 38 -86
86 -108 106 -44 40 -60 81 -38 99 12 10 61 20 174 35 140 19 130 14 154 72 12
29 28 58 34 64 7 7 12 15 12 20 0 4 16 43 37 88 30 66 40 80 59 80 19 0 32
-19 81 -117z"/>
<path d="M7527 9073 c-9 -8 -13 -9 -59 -11 -15 -1 -39 -13 -54 -26 l-28 -23
-3 -298 c-4 -332 -1 -355 50 -376 42 -18 552 -18 595 0 56 23 57 30 60 356 2
164 1 309 -3 322 -10 42 -38 47 -240 49 -104 1 -217 5 -250 8 -33 4 -64 4 -68
-1z"/>
<path d="M8609 8275 c-3 -2 -92 -5 -198 -5 -107 -1 -204 -6 -217 -10 -38 -15
-43 -58 -37 -380 5 -268 8 -304 24 -323 17 -22 19 -22 321 -18 316 3 347 8
363 48 4 10 9 154 12 321 6 332 5 342 -50 362 -29 10 -209 15 -218 5z"/>
<path d="M7444 8247 c-17 -8 -34 -23 -38 -33 -14 -35 -19 -228 -11 -428 7
-191 8 -200 31 -223 l23 -23 286 0 286 0 24 25 25 24 1 238 c1 270 0 361 -7
384 -9 33 -52 39 -322 44 -219 5 -273 3 -298 -8z"/>
<path d="M8010 7004 c0 -112 -24 -323 -39 -353 -6 -11 -37 -32 -68 -47 -70
-33 -134 -35 -213 -5 -66 25 -60 25 -60 3 0 -27 29 -50 96 -74 84 -30 137 -29
206 6 31 15 62 34 68 41 39 47 58 481 22 517 -9 9 -12 -9 -12 -88z"/>
<path d="M7186 6798 c-20 -64 -15 -85 21 -93 10 -2 43 -10 73 -18 56 -15 72
-9 49 19 -10 12 -10 15 2 12 9 -2 15 8 17 29 3 27 -1 33 -20 38 -129 29 -137
30 -142 13z"/>
<path d="M8260 6736 c0 -95 -55 -173 -114 -163 -17 3 -39 8 -48 12 -14 5 -18
2 -18 -12 0 -40 72 -79 127 -68 40 7 78 66 88 138 l6 48 47 -3 c46 -3 47 -3
50 30 3 28 0 32 -21 32 -13 0 -45 3 -71 6 -45 7 -46 6 -46 -20z"/>
<path d="M4176 6954 c-32 -52 -57 -97 -54 -99 4 -5 116 10 122 16 3 2 8 44 12
92 9 116 -5 115 -80 -9z"/>
<path d="M10346 7018 c-3 -24 -7 -96 -8 -161 l-3 -118 25 -5 c14 -3 38 -10 54
-15 16 -5 31 -9 32 -9 2 0 4 74 4 165 l0 164 -37 10 c-57 16 -61 14 -67 -31z"/>
<path d="M10854 7057 c-2 -7 -3 -87 -2 -177 l3 -165 38 -18 c72 -33 72 -33 75
164 l2 175 -35 17 c-42 20 -74 22 -81 4z"/>
<path d="M3041 7035 c-2 -81 -27 -194 -49 -225 -11 -14 -34 -35 -53 -48 -29
-20 -41 -22 -89 -16 -30 4 -65 10 -76 15 -29 10 -33 5 -25 -33 6 -27 11 -31
46 -35 22 -2 44 -8 50 -14 11 -11 92 -11 120 1 13 5 27 2 40 -8 11 -9 15 -10
8 -3 -17 20 5 65 24 50 11 -9 12 -8 7 5 -3 9 -1 16 4 16 6 0 9 -8 7 -19 -2
-12 20 -42 66 -89 51 -52 69 -66 69 -51 0 10 -5 19 -10 19 -18 0 -96 85 -103
111 l-6 24 16 -22 c8 -13 21 -23 27 -23 15 0 51 -38 59 -62 6 -17 24 -23 56
-19 11 2 11 0 0 -12 -8 -8 -17 -13 -20 -11 -3 2 -6 -3 -6 -11 0 -12 4 -12 21
2 12 10 23 19 25 20 2 1 -2 9 -9 18 -7 8 -10 15 -7 15 3 0 2 13 -3 29 -5 17
-3 55 5 96 14 78 1 314 -19 327 -24 16 -35 6 -41 -39 -10 -72 -10 -73 -59 -73
l-44 0 -15 63 -15 62 -1 -60z"/>
<path d="M2818 6978 c-73 -118 -72 -114 -37 -128 26 -11 31 -10 44 6 12 16 16
17 27 5 11 -12 10 -13 -7 -7 -15 6 -17 4 -8 -5 19 -19 37 0 18 21 -12 14 -13
20 -4 26 8 4 10 3 5 -4 -4 -7 -2 -10 6 -7 22 9 32 155 12 162 -6 2 -32 -29
-56 -69z"/>
<path d="M13118 6754 c-5 -4 -8 -18 -8 -32 0 -47 -24 -103 -54 -129 -30 -25
-48 -26 -113 -7 -19 5 -23 2 -23 -14 0 -12 5 -24 10 -27 6 -4 7 -11 4 -17 -4
-6 -3 -8 3 -5 5 3 22 -1 37 -9 86 -44 154 4 170 119 7 46 29 72 45 51 7 -11
32 -11 49 -1 6 5 12 21 12 38 0 25 -4 29 -27 29 -16 0 -44 3 -63 6 -19 3 -38
2 -42 -2z"/>
<path d="M2822 6610 c-50 -33 -107 -45 -146 -31 -26 10 -27 10 -21 -11 11 -37
52 -68 91 -68 36 0 115 33 134 55 12 14 5 71 -9 79 -4 3 -26 -8 -49 -24z"/>
</g>
</svg>
