<?xml version="1.0" encoding="utf-8"?>
<!-- Generator: Adobe Illustrator 24.3.0, SVG Export Plug-In . SVG Version: 6.00 Build 0)  -->
<svg version="1.1" id="Layer_1" xmlns="http://www.w3.org/2000/svg" xmlns:xlink="http://www.w3.org/1999/xlink" x="0px" y="0px"
	 viewBox="0 0 534.8 276.4" style="enable-background:new 0 0 534.8 276.4;" xml:space="preserve">
<style type="text/css">
	.st0{fill:#838584;}
	.st1{fill:#FDC615;stroke:#FFFFFF;stroke-width:2;stroke-miterlimit:10;}
	.st2{fill:#FDC615;}
</style>
<g>
	<path d="M137.5,201.5c1.4-6,2.8-12,4.4-18.4c2.2,0.5,4.2,1,6.3,1.6c0.5,0.1,1,1,1,1.6c0.1,6,0.2,12,0.1,18.1c0,0.8-0.7,1.7-1.1,2.5
		c3.9,1.8,3.9,1.8,2.9,5.5c-2.7,0-5.4,0-8.4,0c0-4.3,0-8.6,0-12.8c-0.1,0-0.3,0-0.4-0.1c-1.3,4.4-2.6,8.8-3.9,13.3
		c-2.6-1-4.5-2.1-5.4-4.8c-1.1-3.4-2.6-6.7-4.1-10.4c-1.1,3.2,0.9,6.4-1.6,8.9c4.3,2.2,4.3,2.2,3.1,5.8c-2.4,0-4.9,0-7.9,0
		c0.4-9.7,0.9-19.3,1.3-29.4c2.4,0.6,4.4,1,6.3,1.7c0.6,0.2,1,1.1,1.3,1.8c1.6,4.2,3.1,8.5,4.7,12.7c0.3,0.8,0.6,1.5,0.9,2.3
		C137.2,201.5,137.4,201.5,137.5,201.5z"/>
	<path d="M354.6,196.8c0,1.9,0,3.7,0.1,5.6c0,1.6,0.7,3.4-2.3,4c1.3,0.5,1.9,0.7,2.5,0.9c2.3,0.7,3,2.2,2,4.3
		c-0.2,0.4-0.7,0.8-1,0.8c-2.3,0.1-4.7,0-7.2,0c0-9.8,0-19.3,0-29.5c2.4,0.6,4.8,1,7,1.7c0.6,0.2,1,1.2,1.3,1.8
		c2.1,5,4.1,10.1,6.1,15.1c0.3,0.7,0.6,1.4,1.3,2.1c-0.2-6.7-0.5-13.5-0.8-20.7c2.3,0.6,4.4,1,6.3,1.7c0.4,0.1,0.9,1.1,0.9,1.7
		c-0.2,6.9-0.5,13.9-0.8,20.8c0,0.7-0.6,1.7-1.3,2c-2.2,1.4-4.5,2.5-7,3.9C359.2,207.4,356.8,202.1,354.6,196.8
		C354.6,196.8,354.6,196.8,354.6,196.8c0,0.1-0.1,0.1-0.1,0.1C354.5,196.8,354.6,196.8,354.6,196.8z"/>
	<path d="M425.9,182.9c2.4,0.5,4.6,0.9,6.7,1.6c0.7,0.2,1.3,1.1,1.6,1.8c2,4.8,3.9,9.6,5.8,14.3c0.3,0.8,0.7,1.7,1.3,3.1
		c0-7.2,0-13.8,0-20.6c1.9,0.5,3.8,0.9,5.7,1.5c0.5,0.2,1.1,1.1,1.1,1.7c-0.2,6.9-0.5,13.9-0.9,20.8c0,0.7-0.6,1.7-1.2,2.1
		c-2.2,1.4-4.5,2.5-7,3.9c-2.4-5.4-4.6-10.5-6.8-15.6c-0.1,0-0.2,0-0.4,0.1c0.1,1.6,0.2,3.2,0.2,4.7c0,1.5,0.5,3.3-2,4
		c1.6,0.7,3.4,0.9,4,1.8c0.6,1,0.1,2.7,0.1,4.1c-2.9,0-5.5,0-8.3,0C425.9,202.6,425.9,193.1,425.9,182.9z"/>
	<path d="M295.8,183c2.2,0.5,4.3,0.9,6.2,1.5c0.5,0.2,1.1,1.3,1.1,1.9c0,2.9-0.1,5.7-0.2,8.6c-0.1,1.2,0.4,1.8,1.5,2.2
		c1.8,0.7,3.6,1.5,5.6,2.4c0-5.5,0-10.9,0-16.7c2.3,0.5,4.4,0.9,6.5,1.6c0.4,0.1,0.9,1.1,0.9,1.7c-0.1,5.9-0.3,11.7-0.6,17.6
		c0,0.9-0.7,1.7-1.1,2.7c0.6,0.2,1.4,0.6,2.2,0.8c1.7,0.4,2,1.4,1.8,3c-0.2,1.4-0.6,2.2-2.3,2.1c-2.4-0.1-4.8,0-7.5,0
		c0.2-3.2,0.3-6.2,0.5-9.3c-2.6,0-5,0-7.2,0c-0.6,1.2-1.1,2.3-1.7,3.5c0.6,0.2,1.3,0.6,2,0.7c2,0.4,2.2,1.6,1.9,3.3
		c-0.2,1.2-0.6,1.9-2,1.9c-2.4-0.1-4.9,0-7.5,0C295.8,202.7,295.8,193.1,295.8,183z"/>
	<path d="M188.4,203.1c-0.6,1.3-1,2.3-1.6,3.5c0.5,0.2,1.2,0.6,1.9,0.7c1.9,0.4,2.3,1.5,2,3.3c-0.3,1.3-0.7,2-2.2,1.9
		c-2.4-0.1-4.8,0-7.3,0c0-9.8,0-19.4,0-29.4c2.2,0.5,4.4,1,6.6,1.6c0.4,0.1,0.7,1.2,0.7,1.8c0,2.9,0,5.7-0.2,8.6
		c-0.1,1.2,0.4,1.8,1.5,2.2c1.8,0.7,3.5,1.5,5.5,2.4c0-5.5,0-10.8,0-16.7c2.4,0.6,4.5,1,6.6,1.6c0.4,0.1,0.8,1,0.8,1.5
		c-0.1,6-0.3,12-0.5,18.1c0,0.7-0.7,1.4-1.2,2.4c0.7,0.2,1.5,0.6,2.4,0.8c1.7,0.4,1.9,1.4,1.7,2.9c-0.2,1.7-0.9,2.3-2.6,2.2
		c-2.3-0.1-4.6,0-7.2,0c0.2-3.2,0.3-6.2,0.4-9.4C193,203.1,190.7,203.1,188.4,203.1z"/>
	<path d="M174.1,207c0.1,0,0.4,0.2,0.8,0.3c2.7,0.8,3.2,1.5,2.2,4.1c-0.2,0.5-0.8,1-1.3,1c-2.7,0.1-5.4,0-8.5,0
		c0.4-2.7,0.9-5.2,1.3-8c-3,0.4-6.1-1.5-7.7,2.5c0.4,0.2,1,0.4,1.5,0.5c2.7,0.8,3,1.4,1.8,3.9c-0.2,0.5-1,1.1-1.5,1.1
		c-2.4,0.1-4.8,0.1-7.7,0.1c0.2-3.9,0.3-7.7,0.7-11.4c0.3-3.4,0.7-6.8,1.3-10.2c0.2-1.1,0.9-2.6,1.8-3.1c2.8-1.6,5.6-3.2,8.7-4.1
		c1.4-0.4,3.3,0.7,5,1.2c2.4,0.7,3.2,2.2,3,4.8c-0.3,4.7-0.2,9.4-0.4,14.2C175.1,204.7,174.5,205.7,174.1,207z M163.9,188.1
		c-0.4,3.5-0.8,6.7-1.1,10c0,0.4,0.2,1,0.5,1.2c1.5,0.8,3,1.4,4.6,2.2c0-2.5-0.3-4.7,0.1-6.8C168.6,191.3,167,189.5,163.9,188.1z"/>
	<path d="M420.9,197c-0.2,2.8-0.5,5.6-0.6,8.4c-0.1,1.5-0.7,2.4-1.8,3.4c-5.9,5.1-11.9,4.5-18.1,0.7c-0.6-0.4-1.3-1.3-1.2-1.9
		c0.2-5.9,0.4-11.9,0.8-17.8c0.1-1,0.9-2.1,1.7-2.7c6.2-4.6,12.2-4.7,18.6-0.4c0.5,0.3,0.9,1.2,1,1.9c0.1,2.9,0,5.7,0,8.6
		C421.1,197,421,197,420.9,197z M406.2,205.3c2,0.8,4.4,1.8,6.8,2.8c0-5.8,0-11.5,0-17.2c0-0.4-0.4-1-0.7-1.1
		c-1.7-0.8-3.4-1.5-5.2-2.3c0,3.9,0.1,7.7,0,11.4C406.9,201,406.5,203,406.2,205.3z"/>
	<path d="M269.7,212.4c0.2-3.7,0.2-7.1,0.5-10.5c0.3-3.8,0.8-7.6,1.4-11.3c0.2-1.1,0.9-2.4,1.8-2.9c2.8-1.6,5.6-3.3,8.7-4.1
		c1.6-0.4,3.7,0.9,5.6,1.4c2,0.6,2.6,1.9,2.5,4c-0.3,4.9-0.2,9.9-0.4,14.8c0,1-0.6,1.9-0.9,3c0,0,0.5,0.2,0.9,0.4
		c2.6,0.8,2.9,1.3,2,3.8c-0.2,0.6-1,1.3-1.5,1.3c-2.6,0.1-5.3,0.1-8.3,0.1c0.4-2.7,0.8-5.2,1.3-8c-2.9,0.3-6.1-1.4-7.7,2.4
		c0.6,0.2,1.2,0.4,1.8,0.6c1.1,0.4,2.6,0.3,2.1,2.4c-0.4,1.7-0.8,2.9-3,2.6C274.3,212.3,272.2,212.4,269.7,212.4z M278.5,188
		c-0.4,3.5-0.8,6.8-1.1,10.2c0,0.4,0.3,1,0.7,1.1c1.4,0.8,2.9,1.4,4.5,2.1c0-2.6-0.3-5,0.1-7.3C283.2,190.8,281.1,189.5,278.5,188z"
		/>
	<path d="M528.2,207c0,0,0.4,0.2,0.8,0.3c2.5,0.7,3.1,1.8,2,4.2c-0.2,0.4-0.8,0.9-1.2,0.9c-2.7,0.1-5.4,0-8.5,0
		c0.4-2.7,0.8-5.2,1.3-8.1c-2.9,0.5-6-1.5-7.6,2.5c0.4,0.2,1,0.4,1.5,0.5c2.6,0.8,3,1.4,1.9,4c-0.2,0.5-0.9,1-1.3,1
		c-2.5,0.1-5,0-7.9,0c0.1-3.4,0.2-6.6,0.5-9.8c0.4-4.1,0.8-8.1,1.5-12.2c0.2-1,0.8-2.3,1.7-2.8c2.9-1.6,5.8-3.3,8.9-4.2
		c1.5-0.4,3.6,0.9,5.4,1.4c2.1,0.6,2.7,2,2.5,4.2c-0.3,4.7-0.2,9.5-0.4,14.2C529,204.5,528.5,205.7,528.2,207z M517.9,188.1
		c-0.4,3.5-0.8,6.8-1.1,10.2c0,0.3,0.2,0.7,0.4,0.9c1.5,0.8,3.1,1.5,4.7,2.3c0-2.5-0.3-4.7,0.1-6.8
		C522.5,191.3,521,189.4,517.9,188.1z"/>
	<path d="M104.1,205c2.5,1.1,4.7,2,7.2,3c0-8.2,0-16.4,0-25c2.4,0.5,4.5,0.9,6.4,1.5c0.5,0.2,1.1,1.1,1.1,1.7
		c-0.2,6.5-0.5,12.9-0.7,19.3c0,0.3,0,0.6-0.1,0.9c-0.7,2.2-8.4,6.9-10.6,6.2c-2.7-0.8-5.3-1.8-7.9-2.7c-1.5-0.5-2.1-1.5-2-3.1
		c0.3-5.2,0.4-10.5,0.6-15.7c0.1-1.1-0.1-1.8-1.3-2c-1.2-0.2-1.4-0.9-1.3-2c0.5-4.1,0.5-4.1,4.6-3.5c0.1,0,0.3,0,0.4,0.1
		c5.3,0.8,5.2,0.8,4.9,6.1c-0.1,2.6,0.1,5.3,0.1,8C105.6,200.2,106.1,202.8,104.1,205z"/>
	<path d="M71,183.2c0.9,0.2,1.7,0.2,2.4,0.5c2.7,1,5.4,1.7,8.2,0c0.6-0.4,2-0.3,2.6,0.2c2.2,1.7,4.3,3.6,6.3,5.5
		c0.3,0.3,0.4,1.2,0.2,1.7c-0.8,2.2-1.6,4.5-2.8,6.5c-0.8,1.4-0.6,2.3,0.2,3.4c1.9,2.7,3.8,5.6,5.8,8.6c-0.9,0.6-1.8,1.3-2.7,1.8
		c-3.7,1.9-4.8,1.6-6.6-2.1c-1.3-2.7-2.6-5.4-3.6-8.2c-0.4-1.1-0.2-2.5,0.2-3.6c0.6-1.8,2.3-3.6,2.1-5.3c-0.2-1.5-2.3-2.7-3.6-4
		c-0.3-0.3-0.4-0.8-0.6-1.1c-0.2,0.1-0.4,0.2-0.7,0.3c0,0.7-0.1,1.5-0.1,2.2c-0.1,4.7-0.2,9.3-0.4,14c0,1-0.6,1.9-0.9,3.1
		c0.8,0.3,2.1,0.7,3.2,1.5c0.5,0.3,0.9,1.4,0.7,2c-0.2,0.8-0.8,2.2-1.4,2.2c-2.8,0.2-5.5,0.1-8.3,0.1C71,202.6,71,193.1,71,183.2z"
		/>
	<path d="M220.3,212.4c0-9.8,0-19.4,0-29.3c1.9,0.5,3.7,1.1,5.5,1.4c0.9,0.2,2,0.2,2.8-0.1c2.5-1.2,4.6-1.3,6.8,0.8
		c6.1,5.7,5.4,3.7,2.3,11.1c-0.4,0.8-0.8,1.6-1.2,2.4c0.1,0.2,0.2,0.4,0.2,0.5c1.1,2,2.2,4.1,3.2,6.1c-2,2.3-4,4.6-6.1,6.8
		c-0.2,0.2-0.7,0.3-1,0.3C228.7,212.4,224.6,212.4,220.3,212.4z M232.1,192.8c-1.6-1.9-3-3.6-4.5-5.3c-0.2,0-0.4,0-0.6,0
		c0,5.1,0.1,10.3,0,15.4c0,1.2-0.5,2.4-0.9,3.9c1.6,0.5,3.7,1.1,6,1.8c-0.2-0.7-0.2-1.1-0.4-1.5C229,201.9,228.8,196.9,232.1,192.8z
		"/>
	<path d="M251.4,205.1c2.2,0.9,4.5,1.9,7,2.9c0-8.2,0-16.4,0-25c2.4,0.5,4.4,0.8,6.3,1.4c0.5,0.2,1.1,1.1,1.1,1.7
		c-0.2,6.6-0.5,13.2-0.8,19.8c0,0.2,0,0.4-0.1,0.6c-0.8,2.3-8.6,6.7-10.9,6c-2.7-0.8-5.3-1.9-7.9-2.8c-1.3-0.5-1.7-1.3-1.6-2.7
		c0.3-5.2,0.4-10.3,0.7-15.5c0.1-1.3,0-2.2-1.5-2.6c-0.5-0.1-1-1-1-1.5c0-1.1,0.1-2.2,0.5-3.2c0.2-0.5,1-1.1,1.5-1
		c2.3,0.3,4.5,0.7,6.7,1.2c0.6,0.1,1.3,1.2,1.3,1.8c0.1,5.1,0.1,10.2,0,15.3C252.5,202.7,251.8,203.9,251.4,205.1z"/>
	<path d="M375,183.3c0.8,0.1,1.5,0.2,2.2,0.4c2.9,0.9,5.6,1.8,8.6,0c0.6-0.3,2.2,0.2,2.7,0.8c2.4,3.4,4.7,7,7,10.5
		c0.3,0.4,0.4,0.9,0.5,1.4c0.6,5-4.6,13.9-9.2,15.8c-0.3,0.1-0.5,0.2-0.8,0.2c-3.6,0-7.1,0-10.9,0C375,202.6,375,193,375,183.3z
		 M386.5,208.9c0.3-1.3,0.4-2.4,0.8-3.4c2-4.2,0.8-8-1.5-11.6c-1.2-1.8-2.1-3.8-3.1-5.7c-0.3,0.1-0.6,0.1-0.9,0.2
		c0,4.8,0.1,9.7,0,14.5c0,1.2-0.6,2.4-1,3.8C382.4,207.3,384.3,208,386.5,208.9z"/>
	<path d="M15.9,199.6c1.6-2.5,2.9-4.7,4.2-6.8c-1.7-1.6-3.3-3.2-5-4.8c-0.1,0.4-0.2,0.9-0.2,1.4c-0.2,4.7-0.3,9.5-0.5,14.2
		c0,0.9-0.6,1.9-1,3c0.9,0.3,2.1,0.8,3.4,1.3c1.5,0.5,1.2,1.6,1,2.6c-0.2,1.1-0.3,2.1-1.9,2c-2.7-0.1-5.4,0-8.2,0
		c0-9.8,0-19.4,0-29.2c0.8,0.2,1.5,0.2,2.1,0.5c2.7,1,5.4,1.8,8.1,0c0.5-0.3,1.6-0.4,2-0.1c2.4,1.9,4.7,3.9,7,6
		c0.3,0.2,0.2,1.1,0,1.6c-1.5,3.1-3,6.2-4.6,9.2c-0.2,0.4-1.2,0.8-1.7,0.7C19.1,200.8,17.7,200.2,15.9,199.6z"/>
	<path d="M469.6,197.3c-0.5,1.1-0.7,1.7-1.1,2.2c-1.4,2.5-2,2.7-4.7,1.8c-1.4-0.5-2.8-0.9-4.1-1.3c-0.5,1.8-1,3.4-1.5,5.1
		c3.6,1.1,7.3,2.3,11.2,3.5c-1.4,3-3.8,4.5-6.6,3.9c-3.1-0.6-6-1.7-9.1-2.6c-1.3-0.4-1.7-1.3-1.6-2.6c0.4-5.8,0.6-11.6,1-17.4
		c0-0.7,0.5-1.6,1-1.9c3.1-1.7,6.2-3.2,9.4-4.7c0.5-0.2,1.2-0.2,1.7,0.1c2.2,1,4.4,2.1,6.9,3.3c-1.9,2-3.6,4.2-6,3.9
		c-2.1-0.3-4.1-1.9-6.4-3.1c0,3,0,5.7,0,8.6C463.4,193,466.1,196.6,469.6,197.3z"/>
	<path d="M473.7,209.4c2.5-4.9,3.2-5.1,7.6-2.5c0.9,0.5,1.7,1,2.6,1.5c1.4-2.8,1.2-3.4-1.1-5c-2.4-1.7-4.9-3.3-7.2-5.1
		c-0.8-0.6-1.4-1.8-1.5-2.7c-0.3-4.5,1.2-7.9,5.6-10.1c5.7-2.8,7.7-2.7,12.7,2c-0.7,0.7-1.3,1.5-2,2.2c-1.5,1.6-3.2,2-5.1,0.6
		c-1.3-1-2.8-1.7-4.3-2.6c-0.3,1.3-0.6,2.3-0.6,3.3c0,0.5,0.6,1.2,1.1,1.6c2.5,1.7,5,3.3,7.5,5c1.8,1.3,3.6,7.4,2.7,9.5
		c-0.2,0.4-0.5,0.7-0.8,0.9c-1,0.7-2,1.4-3,2.1C483,214,478.3,212.5,473.7,209.4z"/>
	<path d="M34.8,189.4c-2-0.2-4.4-0.4-6.7-0.6c-0.1-0.3-0.2-0.5-0.2-0.6c0.7-4.7,0.7-4.8,5.5-4.7c5.2,0.2,10.4,0.5,16.2,0.8
		c-0.9,2.2-1.2,4.6-2.5,5.5c-1.2,0.9-3.5,0.2-5.7,0.2c-0.1,4.4-0.2,8.8-0.4,13.1c-0.1,1.1-0.6,2.1-1,3.5c0.5,0.2,1.4,0.6,2.3,0.8
		c1.4,0.4,1.6,1.2,1.5,2.6c-0.2,1.9-0.8,2.6-2.8,2.5c-2.2-0.2-4.4,0-6.9,0c0-0.8-0.1-1.5-0.1-2.2c0-5.5-0.1-11,0-16.5
		C34.1,192.4,34.5,191,34.8,189.4z"/>
	<path d="M340.5,206.6c0.5,0.2,1.1,0.5,1.8,0.7c2.3,0.8,2.9,2.1,1.8,4.4c-0.2,0.4-0.7,0.8-1.1,0.8c-2.7,0.1-5.4,0-8.1,0
		c0-9.8,0-19.4,0-29.4c2.2,0.5,4.4,1,6.6,1.6c0.4,0.1,0.7,1,0.7,1.6c-0.1,5.9-0.3,11.9-0.5,17.8
		C341.5,204.9,340.9,205.6,340.5,206.6z"/>
	<path d="M501.3,206.6c0.6,0.2,1.2,0.4,1.8,0.6c2.5,0.9,3,1.9,1.9,4.3c-0.2,0.4-0.8,0.9-1.2,0.9c-2.6,0.1-5.3,0-8,0
		c0-9.8,0-19.4,0-29.4c2.2,0.5,4.3,0.9,6.4,1.6c0.4,0.1,0.8,1.1,0.8,1.7c-0.1,5.9-0.3,11.9-0.5,17.8
		C502.5,204.9,501.8,205.7,501.3,206.6z"/>
	<path d="M49.6,209.8c0-1.7,1.4-3.2,3.1-3.2c1.7,0,3.2,1.4,3.2,3.1c0,1.7-1.3,3-3,3.1C51.1,212.8,49.7,211.5,49.6,209.8z"/>
</g>
<g>
	<g>
		<polygon points="70.3,167.1 271.9,5.6 206.3,5.6 4.7,167.1 		"/>
	</g>
	<polygon points="388.7,99.4 271.6,5.6 253.4,5.6 388.7,113.9 	"/>
	<g>
		<g>
			<polygon points="335,166.9 431.8,89.3 400.3,89.3 303.5,166.9 			"/>
		</g>
		<polygon points="431.7,89.3 422.9,89.3 519.8,166.9 528.5,166.9 		"/>
	</g>
	<g>
		<polygon class="st0" points="334.9,56.1 347.7,47.3 405.3,89.3 416.5,89.3 351.5,35.4 344.2,35.4 344.2,44 330.6,52.6 		"/>
		<path d="M417.8,89.8h-12.7l-57.5-41.9l-12.8,8.7l-5.2-4.1l14-8.8v-8.8h8L417.8,89.8z M405.5,88.8h9.6l-63.8-53h-6.7v8.4l-13.2,8.4
			l3.5,2.8l12.8-8.7L405.5,88.8z"/>
	</g>
	<g>
		<rect x="235.7" y="94.5" width="31.7" height="31.7"/>
		<rect x="271.8" y="94.5" width="31.7" height="31.7"/>
		<rect x="235.7" y="128.9" width="31.7" height="31.7"/>
		<rect x="271.8" y="128.9" width="31.7" height="31.7"/>
	</g>
</g>
<polygon class="st1" points="266.6,224.5 273.9,239.4 290.3,241.7 278.4,253.3 281.2,269.6 266.6,261.9 251.9,269.6 254.7,253.3 
	242.9,241.7 259.3,239.4 "/>
<g>
	<polygon class="st1" points="188.5,224.5 195.9,239.4 212.3,241.7 200.4,253.3 203.2,269.6 188.5,261.9 173.9,269.6 176.7,253.3 
		164.8,241.7 181.2,239.4 	"/>
	<polygon class="st1" points="344.6,224.5 351.9,239.4 368.3,241.7 356.5,253.3 359.3,269.6 344.6,261.9 330,269.6 332.8,253.3 
		320.9,241.7 337.3,239.4 	"/>
</g>
<g>
	<path class="st2" d="M134.5,199.5c1.4-6,2.8-12,4.4-18.4c2.2,0.5,4.2,1,6.3,1.6c0.5,0.1,1,1,1,1.6c0.1,6,0.2,12,0.1,18.1
		c0,0.8-0.7,1.7-1.1,2.5c3.9,1.8,3.9,1.8,2.9,5.5c-2.7,0-5.4,0-8.4,0c0-4.3,0-8.6,0-12.8c-0.1,0-0.3,0-0.4-0.1
		c-1.3,4.4-2.6,8.8-3.9,13.3c-2.6-1-4.5-2.1-5.4-4.8c-1.1-3.4-2.6-6.7-4.1-10.4c-1.1,3.2,0.9,6.4-1.6,8.9c4.3,2.2,4.3,2.2,3.1,5.8
		c-2.4,0-4.9,0-7.9,0c0.4-9.7,0.9-19.3,1.3-29.4c2.4,0.6,4.4,1,6.3,1.7c0.6,0.2,1,1.1,1.3,1.8c1.6,4.2,3.1,8.5,4.7,12.7
		c0.3,0.8,0.6,1.5,0.9,2.3C134.2,199.5,134.4,199.5,134.5,199.5z"/>
	<path class="st2" d="M351.6,194.8c0,1.9,0,3.7,0.1,5.6c0,1.6,0.7,3.4-2.3,4c1.3,0.5,1.9,0.7,2.5,0.9c2.3,0.7,3,2.2,2,4.3
		c-0.2,0.4-0.7,0.8-1,0.8c-2.3,0.1-4.7,0-7.2,0c0-9.8,0-19.3,0-29.5c2.4,0.6,4.8,1,7,1.7c0.6,0.2,1,1.2,1.3,1.8
		c2.1,5,4.1,10.1,6.1,15.1c0.3,0.7,0.6,1.4,1.3,2.1c-0.2-6.7-0.5-13.5-0.8-20.7c2.3,0.6,4.4,1,6.3,1.7c0.4,0.1,0.9,1.1,0.9,1.7
		c-0.2,6.9-0.5,13.9-0.8,20.8c0,0.7-0.6,1.7-1.3,2c-2.2,1.4-4.5,2.5-7,3.9C356.2,205.4,353.8,200.1,351.6,194.8
		C351.6,194.8,351.6,194.8,351.6,194.8c0,0.1-0.1,0.1-0.1,0.1C351.5,194.8,351.6,194.8,351.6,194.8z"/>
	<path class="st2" d="M422.9,180.9c2.4,0.5,4.6,0.9,6.7,1.6c0.7,0.2,1.3,1.1,1.6,1.8c2,4.8,3.9,9.6,5.8,14.3
		c0.3,0.8,0.7,1.7,1.3,3.1c0-7.2,0-13.8,0-20.6c1.9,0.5,3.8,0.9,5.7,1.5c0.5,0.2,1.1,1.1,1.1,1.7c-0.2,6.9-0.5,13.9-0.9,20.8
		c0,0.7-0.6,1.7-1.2,2.1c-2.2,1.4-4.5,2.5-7,3.9c-2.4-5.4-4.6-10.5-6.8-15.6c-0.1,0-0.2,0-0.4,0.1c0.1,1.6,0.2,3.2,0.2,4.7
		c0,1.5,0.5,3.3-2,4c1.6,0.7,3.4,0.9,4,1.8c0.6,1,0.1,2.7,0.1,4.1c-2.9,0-5.5,0-8.3,0C422.9,200.6,422.9,191.1,422.9,180.9z"/>
	<path class="st2" d="M292.8,181c2.2,0.5,4.3,0.9,6.2,1.5c0.5,0.2,1.1,1.3,1.1,1.9c0,2.9-0.1,5.7-0.2,8.6c-0.1,1.2,0.4,1.8,1.5,2.2
		c1.8,0.7,3.6,1.5,5.6,2.4c0-5.5,0-10.9,0-16.7c2.3,0.5,4.4,0.9,6.5,1.6c0.4,0.1,0.9,1.1,0.9,1.7c-0.1,5.9-0.3,11.7-0.6,17.6
		c0,0.9-0.7,1.7-1.1,2.7c0.6,0.2,1.4,0.6,2.2,0.8c1.7,0.4,2,1.4,1.8,3c-0.2,1.4-0.6,2.2-2.3,2.1c-2.4-0.1-4.8,0-7.5,0
		c0.2-3.2,0.3-6.2,0.5-9.3c-2.6,0-5,0-7.2,0c-0.6,1.2-1.1,2.3-1.7,3.5c0.6,0.2,1.3,0.6,2,0.7c2,0.4,2.2,1.6,1.9,3.3
		c-0.2,1.2-0.6,1.9-2,1.9c-2.4-0.1-4.9,0-7.5,0C292.8,200.7,292.8,191.1,292.8,181z"/>
	<path class="st2" d="M185.4,201.1c-0.6,1.3-1,2.3-1.6,3.5c0.5,0.2,1.2,0.6,1.9,0.7c1.9,0.4,2.3,1.5,2,3.3c-0.3,1.3-0.7,2-2.2,1.9
		c-2.4-0.1-4.8,0-7.3,0c0-9.8,0-19.4,0-29.4c2.2,0.5,4.4,1,6.6,1.6c0.4,0.1,0.7,1.2,0.7,1.8c0,2.9,0,5.7-0.2,8.6
		c-0.1,1.2,0.4,1.8,1.5,2.2c1.8,0.7,3.5,1.5,5.5,2.4c0-5.5,0-10.8,0-16.7c2.4,0.6,4.5,1,6.6,1.6c0.4,0.1,0.8,1,0.8,1.5
		c-0.1,6-0.3,12-0.5,18.1c0,0.7-0.7,1.4-1.2,2.4c0.7,0.2,1.5,0.6,2.4,0.8c1.7,0.4,1.9,1.4,1.7,2.9c-0.2,1.7-0.9,2.3-2.6,2.2
		c-2.3-0.1-4.6,0-7.2,0c0.2-3.2,0.3-6.2,0.4-9.4C190,201.1,187.7,201.1,185.4,201.1z"/>
	<path class="st2" d="M171.1,205c0.1,0,0.4,0.2,0.8,0.3c2.7,0.8,3.2,1.5,2.2,4.1c-0.2,0.5-0.8,1-1.3,1c-2.7,0.1-5.4,0-8.5,0
		c0.4-2.7,0.9-5.2,1.3-8c-3,0.4-6.1-1.5-7.7,2.5c0.4,0.2,1,0.4,1.5,0.5c2.7,0.8,3,1.4,1.8,3.9c-0.2,0.5-1,1.1-1.5,1.1
		c-2.4,0.1-4.8,0.1-7.7,0.1c0.2-3.9,0.3-7.7,0.7-11.4c0.3-3.4,0.7-6.8,1.3-10.2c0.2-1.1,0.9-2.6,1.8-3.1c2.8-1.6,5.6-3.2,8.7-4.1
		c1.4-0.4,3.3,0.7,5,1.2c2.4,0.7,3.2,2.2,3,4.8c-0.3,4.7-0.2,9.4-0.4,14.2C172.1,202.7,171.5,203.7,171.1,205z M160.9,186.1
		c-0.4,3.5-0.8,6.7-1.1,10c0,0.4,0.2,1,0.5,1.2c1.5,0.8,3,1.4,4.6,2.2c0-2.5-0.3-4.7,0.1-6.8C165.6,189.3,164,187.5,160.9,186.1z"/>
	<path class="st2" d="M417.9,195c-0.2,2.8-0.5,5.6-0.6,8.4c-0.1,1.5-0.7,2.4-1.8,3.4c-5.9,5.1-11.9,4.5-18.1,0.7
		c-0.6-0.4-1.3-1.3-1.2-1.9c0.2-5.9,0.4-11.9,0.8-17.8c0.1-1,0.9-2.1,1.7-2.7c6.2-4.6,12.2-4.7,18.6-0.4c0.5,0.3,0.9,1.2,1,1.9
		c0.1,2.9,0,5.7,0,8.6C418.1,195,418,195,417.9,195z M403.2,203.3c2,0.8,4.4,1.8,6.8,2.8c0-5.8,0-11.5,0-17.2c0-0.4-0.4-1-0.7-1.1
		c-1.7-0.8-3.4-1.5-5.2-2.3c0,3.9,0.1,7.7,0,11.4C403.9,199,403.5,201,403.2,203.3z"/>
	<path class="st2" d="M266.7,210.4c0.2-3.7,0.2-7.1,0.5-10.5c0.3-3.8,0.8-7.6,1.4-11.3c0.2-1.1,0.9-2.4,1.8-2.9
		c2.8-1.6,5.6-3.3,8.7-4.1c1.6-0.4,3.7,0.9,5.6,1.4c2,0.6,2.6,1.9,2.5,4c-0.3,4.9-0.2,9.9-0.4,14.8c0,1-0.6,1.9-0.9,3
		c0,0,0.5,0.2,0.9,0.4c2.6,0.8,2.9,1.3,2,3.8c-0.2,0.6-1,1.3-1.5,1.3c-2.6,0.1-5.3,0.1-8.3,0.1c0.4-2.7,0.8-5.2,1.3-8
		c-2.9,0.3-6.1-1.4-7.7,2.4c0.6,0.2,1.2,0.4,1.8,0.6c1.1,0.4,2.6,0.3,2.1,2.4c-0.4,1.7-0.8,2.9-3,2.6
		C271.3,210.3,269.2,210.4,266.7,210.4z M275.5,186c-0.4,3.5-0.8,6.8-1.1,10.2c0,0.4,0.3,1,0.7,1.1c1.4,0.8,2.9,1.4,4.5,2.1
		c0-2.6-0.3-5,0.1-7.3C280.2,188.8,278.1,187.5,275.5,186z"/>
	<path class="st2" d="M525.2,205c0,0,0.4,0.2,0.8,0.3c2.5,0.7,3.1,1.8,2,4.2c-0.2,0.4-0.8,0.9-1.2,0.9c-2.7,0.1-5.4,0-8.5,0
		c0.4-2.7,0.8-5.2,1.3-8.1c-2.9,0.5-6-1.5-7.6,2.5c0.4,0.2,1,0.4,1.5,0.5c2.6,0.8,3,1.4,1.9,4c-0.2,0.5-0.9,1-1.3,1
		c-2.5,0.1-5,0-7.9,0c0.1-3.4,0.2-6.6,0.5-9.8c0.4-4.1,0.8-8.1,1.5-12.2c0.2-1,0.8-2.3,1.7-2.8c2.9-1.6,5.8-3.3,8.9-4.2
		c1.5-0.4,3.6,0.9,5.4,1.4c2.1,0.6,2.7,2,2.5,4.2c-0.3,4.7-0.2,9.5-0.4,14.2C526,202.5,525.5,203.7,525.2,205z M514.9,186.1
		c-0.4,3.5-0.8,6.8-1.1,10.2c0,0.3,0.2,0.7,0.4,0.9c1.5,0.8,3.1,1.5,4.7,2.3c0-2.5-0.3-4.7,0.1-6.8
		C519.5,189.3,518,187.4,514.9,186.1z"/>
	<path class="st2" d="M101.1,203c2.5,1.1,4.7,2,7.2,3c0-8.2,0-16.4,0-25c2.4,0.5,4.5,0.9,6.4,1.5c0.5,0.2,1.1,1.1,1.1,1.7
		c-0.2,6.5-0.5,12.9-0.7,19.3c0,0.3,0,0.6-0.1,0.9c-0.7,2.2-8.4,6.9-10.6,6.2c-2.7-0.8-5.3-1.8-7.9-2.7c-1.5-0.5-2.1-1.5-2-3.1
		c0.3-5.2,0.4-10.5,0.6-15.7c0.1-1.1-0.1-1.8-1.3-2c-1.2-0.2-1.4-0.9-1.3-2c0.5-4.1,0.5-4.1,4.6-3.5c0.1,0,0.3,0,0.4,0.1
		c5.3,0.8,5.2,0.8,4.9,6.1c-0.1,2.6,0.1,5.3,0.1,8C102.6,198.2,103.1,200.8,101.1,203z"/>
	<path class="st2" d="M68,181.2c0.9,0.2,1.7,0.2,2.4,0.5c2.7,1,5.4,1.7,8.2,0c0.6-0.4,2-0.3,2.6,0.2c2.2,1.7,4.3,3.6,6.3,5.5
		c0.3,0.3,0.4,1.2,0.2,1.7c-0.8,2.2-1.6,4.5-2.8,6.5c-0.8,1.4-0.6,2.3,0.2,3.4c1.9,2.7,3.8,5.6,5.8,8.6c-0.9,0.6-1.8,1.3-2.7,1.8
		c-3.7,1.9-4.8,1.6-6.6-2.1c-1.3-2.7-2.6-5.4-3.6-8.2c-0.4-1.1-0.2-2.5,0.2-3.6c0.6-1.8,2.3-3.6,2.1-5.3c-0.2-1.5-2.3-2.7-3.6-4
		c-0.3-0.3-0.4-0.8-0.6-1.1c-0.2,0.1-0.4,0.2-0.7,0.3c0,0.7-0.1,1.5-0.1,2.2c-0.1,4.7-0.2,9.3-0.4,14c0,1-0.6,1.9-0.9,3.1
		c0.8,0.3,2.1,0.7,3.2,1.5c0.5,0.3,0.9,1.4,0.7,2c-0.2,0.8-0.8,2.2-1.4,2.2c-2.8,0.2-5.5,0.1-8.3,0.1C68,200.6,68,191.1,68,181.2z"
		/>
	<path class="st2" d="M217.3,210.4c0-9.8,0-19.4,0-29.3c1.9,0.5,3.7,1.1,5.5,1.4c0.9,0.2,2,0.2,2.8-0.1c2.5-1.2,4.6-1.3,6.8,0.8
		c6.1,5.7,5.4,3.7,2.3,11.1c-0.4,0.8-0.8,1.6-1.2,2.4c0.1,0.2,0.2,0.4,0.2,0.5c1.1,2,2.2,4.1,3.2,6.1c-2,2.3-4,4.6-6.1,6.8
		c-0.2,0.2-0.7,0.3-1,0.3C225.7,210.4,221.6,210.4,217.3,210.4z M229.1,190.8c-1.6-1.9-3-3.6-4.5-5.3c-0.2,0-0.4,0-0.6,0
		c0,5.1,0.1,10.3,0,15.4c0,1.2-0.5,2.4-0.9,3.9c1.6,0.5,3.7,1.1,6,1.8c-0.2-0.7-0.2-1.1-0.4-1.5C226,199.9,225.8,194.9,229.1,190.8z
		"/>
	<path class="st2" d="M248.4,203.1c2.2,0.9,4.5,1.9,7,2.9c0-8.2,0-16.4,0-25c2.4,0.5,4.4,0.8,6.3,1.4c0.5,0.2,1.1,1.1,1.1,1.7
		c-0.2,6.6-0.5,13.2-0.8,19.8c0,0.2,0,0.4-0.1,0.6c-0.8,2.3-8.6,6.7-10.9,6c-2.7-0.8-5.3-1.9-7.9-2.8c-1.3-0.5-1.7-1.3-1.6-2.7
		c0.3-5.2,0.4-10.3,0.7-15.5c0.1-1.3,0-2.2-1.5-2.6c-0.5-0.1-1-1-1-1.5c0-1.1,0.1-2.2,0.5-3.2c0.2-0.5,1-1.1,1.5-1
		c2.3,0.3,4.5,0.7,6.7,1.2c0.6,0.1,1.3,1.2,1.3,1.8c0.1,5.1,0.1,10.2,0,15.3C249.5,200.7,248.8,201.9,248.4,203.1z"/>
	<path class="st2" d="M372,181.3c0.8,0.1,1.5,0.2,2.2,0.4c2.9,0.9,5.6,1.8,8.6,0c0.6-0.3,2.2,0.2,2.7,0.8c2.4,3.4,4.7,7,7,10.5
		c0.3,0.4,0.4,0.9,0.5,1.4c0.6,5-4.6,13.9-9.2,15.8c-0.3,0.1-0.5,0.2-0.8,0.2c-3.6,0-7.1,0-10.9,0C372,200.6,372,191,372,181.3z
		 M383.5,206.9c0.3-1.3,0.4-2.4,0.8-3.4c2-4.2,0.8-8-1.5-11.6c-1.2-1.8-2.1-3.8-3.1-5.7c-0.3,0.1-0.6,0.1-0.9,0.2
		c0,4.8,0.1,9.7,0,14.5c0,1.2-0.6,2.4-1,3.8C379.4,205.3,381.3,206,383.5,206.9z"/>
	<path class="st2" d="M12.9,197.6c1.6-2.5,2.9-4.7,4.2-6.8c-1.7-1.6-3.3-3.2-5-4.8c-0.1,0.4-0.2,0.9-0.2,1.4
		c-0.2,4.7-0.3,9.5-0.5,14.2c0,0.9-0.6,1.9-1,3c0.9,0.3,2.1,0.8,3.4,1.3c1.5,0.5,1.2,1.6,1,2.6c-0.2,1.1-0.3,2.1-1.9,2
		c-2.7-0.1-5.4,0-8.2,0c0-9.8,0-19.4,0-29.2c0.8,0.2,1.5,0.2,2.1,0.5c2.7,1,5.4,1.8,8.1,0c0.5-0.3,1.6-0.4,2-0.1
		c2.4,1.9,4.7,3.9,7,6c0.3,0.2,0.2,1.1,0,1.6c-1.5,3.1-3,6.2-4.6,9.2c-0.2,0.4-1.2,0.8-1.7,0.7C16.1,198.8,14.7,198.2,12.9,197.6z"
		/>
	<path class="st2" d="M466.6,195.3c-0.5,1.1-0.7,1.7-1.1,2.2c-1.4,2.5-2,2.7-4.7,1.8c-1.4-0.5-2.8-0.9-4.1-1.3
		c-0.5,1.8-1,3.4-1.5,5.1c3.6,1.1,7.3,2.3,11.2,3.5c-1.4,3-3.8,4.5-6.6,3.9c-3.1-0.6-6-1.7-9.1-2.6c-1.3-0.4-1.7-1.3-1.6-2.6
		c0.4-5.8,0.6-11.6,1-17.4c0-0.7,0.5-1.6,1-1.9c3.1-1.7,6.2-3.2,9.4-4.7c0.5-0.2,1.2-0.2,1.7,0.1c2.2,1,4.4,2.1,6.9,3.3
		c-1.9,2-3.6,4.2-6,3.9c-2.1-0.3-4.1-1.9-6.4-3.1c0,3,0,5.7,0,8.6C460.4,191,463.1,194.6,466.6,195.3z"/>
	<path class="st2" d="M470.7,207.4c2.5-4.9,3.2-5.1,7.6-2.5c0.9,0.5,1.7,1,2.6,1.5c1.4-2.8,1.2-3.4-1.1-5c-2.4-1.7-4.9-3.3-7.2-5.1
		c-0.8-0.6-1.4-1.8-1.5-2.7c-0.3-4.5,1.2-7.9,5.6-10.1c5.7-2.8,7.7-2.7,12.7,2c-0.7,0.7-1.3,1.5-2,2.2c-1.5,1.6-3.2,2-5.1,0.6
		c-1.3-1-2.8-1.7-4.3-2.6c-0.3,1.3-0.6,2.3-0.6,3.3c0,0.5,0.6,1.2,1.1,1.6c2.5,1.7,5,3.3,7.5,5c1.8,1.3,3.6,7.4,2.7,9.5
		c-0.2,0.4-0.5,0.7-0.8,0.9c-1,0.7-2,1.4-3,2.1C480,212,475.3,210.5,470.7,207.4z"/>
	<path class="st2" d="M31.8,187.4c-2-0.2-4.4-0.4-6.7-0.6c-0.1-0.3-0.2-0.5-0.2-0.6c0.7-4.7,0.7-4.8,5.5-4.7
		c5.2,0.2,10.4,0.5,16.2,0.8c-0.9,2.2-1.2,4.6-2.5,5.5c-1.2,0.9-3.5,0.2-5.7,0.2c-0.1,4.4-0.2,8.8-0.4,13.1c-0.1,1.1-0.6,2.1-1,3.5
		c0.5,0.2,1.4,0.6,2.3,0.8c1.4,0.4,1.6,1.2,1.5,2.6c-0.2,1.9-0.8,2.6-2.8,2.5c-2.2-0.2-4.4,0-6.9,0c0-0.8-0.1-1.5-0.1-2.2
		c0-5.5-0.1-11,0-16.5C31.1,190.4,31.5,189,31.8,187.4z"/>
	<path class="st2" d="M337.5,204.6c0.5,0.2,1.1,0.5,1.8,0.7c2.3,0.8,2.9,2.1,1.8,4.4c-0.2,0.4-0.7,0.8-1.1,0.8c-2.7,0.1-5.4,0-8.1,0
		c0-9.8,0-19.4,0-29.4c2.2,0.5,4.4,1,6.6,1.6c0.4,0.1,0.7,1,0.7,1.6c-0.1,5.9-0.3,11.9-0.5,17.8
		C338.5,202.9,337.9,203.6,337.5,204.6z"/>
	<path class="st2" d="M498.3,204.6c0.6,0.2,1.2,0.4,1.8,0.6c2.5,0.9,3,1.9,1.9,4.3c-0.2,0.4-0.8,0.9-1.2,0.9c-2.6,0.1-5.3,0-8,0
		c0-9.8,0-19.4,0-29.4c2.2,0.5,4.3,0.9,6.4,1.6c0.4,0.1,0.8,1.1,0.8,1.7c-0.1,5.9-0.3,11.9-0.5,17.8
		C499.5,202.9,498.8,203.7,498.3,204.6z"/>
	<path class="st2" d="M46.6,207.8c0-1.7,1.4-3.2,3.1-3.2c1.7,0,3.2,1.4,3.2,3.1c0,1.7-1.3,3-3,3.1C48.1,210.8,46.7,209.5,46.6,207.8
		z"/>
</g>
</svg>
